<svg width="1920" height="1080" viewBox="0 0 1920 1080" xmlns="http://www.w3.org/2000/svg"><rect width="1920" height="1080" fill="#0099ff"/><path d="M 0,1080 C 0,1080 0,180 0,180 C 134.44102564102565,149.6076923076923 268.8820512820513,119.21538461538461 369,140 C 469.1179487179487,160.7846153846154 534.9128205128205,232.74615384615385 619,242 C 703.0871794871795,251.25384615384615 805.4666666666667,197.8 930,162 C 1054.5333333333333,126.19999999999999 1201.2205128205128,108.05384615384614 1306,125 C 1410.7794871794872,141.94615384615386 1473.651282051282,193.98461538461538 1569,209 C 1664.348717948718,224.01538461538462 1792.1743589743592,202.0076923076923 1920,180 C 1920,180 1920,1080 1920,1080 Z" fill="#3700ff" opacity="0.09999999999999999"/><path d="M 0,1080 C 0,1080 0,360 0,360 C 112.6076923076923,370.01282051282055 225.2153846153846,380.02564102564105 344,380 C 462.7846153846154,379.97435897435895 587.746153846154,369.91025641025647 684,379 C 780.253846153846,388.08974358974353 847.8,416.33333333333337 938,402 C 1028.2,387.66666666666663 1141.053846153846,330.7564102564103 1253,305 C 1364.946153846154,279.2435897435897 1475.9846153846152,284.6410256410257 1587,299 C 1698.0153846153848,313.3589743589743 1809.0076923076924,336.6794871794872 1920,360 C 1920,360 1920,1080 1920,1080 Z" fill="#3700ff" opacity="0.19999999999999998"/><path d="M 0,1080 C 0,1080 0,540 0,540 C 80.85128205128208,569.5307692307692 161.70256410256417,599.0615384615385 278,576 C 394.29743589743583,552.9384615384615 546.0410256410256,477.28461538461534 671,489 C 795.9589743589744,500.71538461538466 894.1333333333334,599.8000000000001 1006,602 C 1117.8666666666666,604.1999999999999 1243.425641025641,509.5153846153846 1339,488 C 1434.574358974359,466.4846153846154 1500.1641025641027,518.1384615384616 1592,539 C 1683.8358974358973,559.8615384615384 1801.9179487179485,549.9307692307692 1920,540 C 1920,540 1920,1080 1920,1080 Z" fill="#3700ff" opacity="0.3"/><path d="M 0,1080 C 0,1080 0,720 0,720 C 128.14871794871797,712.4897435897436 256.29743589743595,704.9794871794873 367,696 C 477.70256410256405,687.0205128205127 570.9589743589743,676.5717948717947 662,685 C 753.0410256410257,693.4282051282053 841.8666666666668,720.7333333333333 951,738 C 1060.1333333333332,755.2666666666667 1189.5743589743588,762.4948717948718 1303,764 C 1416.4256410256412,765.5051282051282 1513.8358974358976,761.2871794871795 1614,753 C 1714.1641025641024,744.7128205128205 1817.0820512820512,732.3564102564103 1920,720 C 1920,720 1920,1080 1920,1080 Z" fill="#3700ff" opacity="0.39999999999999997"/><path d="M 0,1080 C 0,1080 0,900 0,900 C 90.52564102564105,920.9846153846154 181.0512820512821,941.9692307692306 288,922 C 394.9487179487179,902.0307692307694 518.3205128205128,841.1076923076924 622,842 C 725.6794871794872,842.8923076923076 809.6666666666667,905.5999999999998 911,909 C 1012.3333333333333,912.4000000000002 1131.0128205128208,856.4923076923078 1253,839 C 1374.9871794871792,821.5076923076922 1500.2820512820513,842.4307692307692 1612,859 C 1723.7179487179487,875.5692307692308 1821.8589743589744,887.7846153846153 1920,900 C 1920,900 1920,1080 1920,1080 Z" fill="#3700ff" opacity="0.49999999999999994"/></svg>